<?xml version="1.0" encoding="UTF-8" standalone="no"?>
<!-- Created with Inkscape (http://www.inkscape.org/) -->

<svg
   width="160.16957mm"
   height="250.78407mm"
   viewBox="0 0 160.16957 250.78407"
   version="1.1"
   id="svg12094"
   xml:space="preserve"
   inkscape:version="1.2.1 (9c6d41e4, 2022-07-14)"
   sodipodi:docname="dsac-shield.svg"
   xmlns:inkscape="http://www.inkscape.org/namespaces/inkscape"
   xmlns:sodipodi="http://sodipodi.sourceforge.net/DTD/sodipodi-0.dtd"
   xmlns="http://www.w3.org/2000/svg"
   xmlns:svg="http://www.w3.org/2000/svg"><sodipodi:namedview
     id="namedview12096"
     pagecolor="#ffffff"
     bordercolor="#000000"
     borderopacity="0.25"
     inkscape:showpageshadow="2"
     inkscape:pageopacity="0.0"
     inkscape:pagecheckerboard="0"
     inkscape:deskcolor="#d1d1d1"
     inkscape:document-units="mm"
     showgrid="false"
     inkscape:zoom="0.2102413"
     inkscape:cx="45.186174"
     inkscape:cy="475.64393"
     inkscape:window-width="1309"
     inkscape:window-height="456"
     inkscape:window-x="0"
     inkscape:window-y="25"
     inkscape:window-maximized="0"
     inkscape:current-layer="g1237" /><defs
     id="defs12091" /><g
     inkscape:label="Layer 1"
     inkscape:groupmode="layer"
     id="layer1"
     transform="translate(-27.132023,-23.107957)"><g
       inkscape:label="Layer 1"
       id="layer1-8"
       transform="translate(-40.560827,11.074627)"><g
         style="fill:currentColor"
         id="g5382"
         transform="matrix(0.93679685,0,0,0.93679685,40.571126,142.08129)" /><g
         id="g1235"
         inkscape:label="Page 1"
         transform="matrix(0.35277777,0,0,-0.35277777,-146.74002,417.8837)"><g
           id="g1237"
           transform="matrix(0.1,0,0,0.1,125.92502,195.00002)"
           style="fill:#333333"><g
             id="g12663"
             style="fill:#2b1a78;fill-opacity:1"><path
               d="m 7089.282,9554.42 -174.3,-369.6 -405.36,-51.55 297.64,-279.97 -76.23,-401.45 358.25,196.56 358.25,-196.56 -76.24,401.45 297.65,279.97 -405.37,51.55 -174.29,369.6"
               style="fill:#2b1a78;fill-opacity:1;fill-rule:nonzero;stroke:none"
               id="path1239" /><path
               d="m 9359.402,4958.55 v 3651.62 c 0,219.62 -178.68,398.3 -398.3,398.3 h -1224.68 l -214.24,-201.52 h 1438.92 c 108.23,0 196.78,-88.55 196.78,-196.78 0,0 0,-3567.01 0,-3651.62 0,-84.6 -20.27,-108.67 -43.24,-144.93 -164.87,-260.42 -1001.16,-1323.55 -1459.62,-1749.9 -70.85,-65.89 -389.45,-416.62 -565.74,-416.62 -176.29,0 -494.89,350.73 -565.74,416.62 -458.46,426.35 -1294.759,1489.48 -1459.626,1749.9 -22.961,36.26 -43.234,60.33 -43.234,144.93 0,84.61 0,3651.62 0,3651.62 0,108.23 88.546,196.78 196.773,196.78 h 1438.927 l -214.24,201.52 H 5217.455 c -219.617,0 -398.293,-178.68 -398.293,-398.3 V 4958.55 c 0,-126.55 34.539,-190.72 69.918,-245.59 l 4.586,-7.15 c 169.32,-267.47 1015.356,-1345.82 1492.636,-1789.66 7.6,-7.07 23.66,-23.2 40.66,-40.28 264.4,-265.64 467.43,-430.29 662.32,-430.29 194.89,0 397.92,164.65 662.32,430.29 17,17.08 33.06,33.21 40.65,40.28 477.29,443.85 1323.33,1522.2 1492.66,1789.68 l 4.57,7.12 c 35.38,54.88 69.92,119.04 69.92,245.6"
               style="fill:#2b1a78;fill-opacity:1;fill-rule:nonzero;stroke:none"
               id="path1241" /><path
               d="m 9028.332,4958.55 v 3651.62 c 0,36.44 -30.79,67.23 -67.23,67.23 h -1437.13 l 39.4,-207.47 51.25,-269.88 -240.84,132.14 -284.5,156.1 -284.5,-156.1 -240.83,-132.14 51.24,269.88 39.4,207.47 H 5217.459 c -36.442,0 -67.231,-30.79 -67.231,-67.23 V 4958.55 c 0,-39.67 2.614,-43.72 17.11,-66.2 1.984,-3.08 3.996,-6.21 6.027,-9.42 166.738,-263.38 996.137,-1313.07 1438.397,-1724.34 12.28,-11.42 28.86,-28.08 49.85,-49.17 57.79,-58.06 145.12,-145.8 236.37,-219.65 138.15,-111.83 189.2,-113.12 191.3,-113.12 2.1,0 53.15,1.29 191.3,113.12 91.25,73.85 178.58,161.59 236.37,219.65 20.99,21.09 37.57,37.75 49.85,49.17 442.26,411.27 1271.65,1460.96 1438.38,1724.33 2.04,3.22 4.06,6.35 6.04,9.43 14.5,22.48 17.11,26.53 17.11,66.2 z m -293.91,702.22 c 0,-106.84 -86.6,-193.45 -193.45,-193.45 h -791.91 v -792.58 c 0,-106.83 -86.6,-193.44 -193.45,-193.44 h -455.58 -21.49 -455.59 c -106.84,0 -193.45,86.61 -193.45,193.44 v 792.58 h -791.91 c -106.84,0 -193.45,86.61 -193.45,193.45 v 229.42 c 3.344,0.44 248.57,2.5 367.52,-0.63 26.5,-0.69 55.19,-14.64 78.29,-29.57 81.43,-52.59 160.94,-108.16 241.03,-162.81 33.96,-23.17 71.1,-32.35 112.28,-32.24 251.3,0.68 502.61,0.13 753.91,0.64 23.29,0.04 40.61,-4.84 57.41,-23.59 36.77,-41.03 97.59,-40.47 135.63,-2.35 38.01,38.08 38.6,95.35 1.39,133.66 -37.29,38.37 -95.37,41.41 -132.94,2.32 -20.68,-21.54 -41.97,-27.05 -69.88,-26.97 -245.79,0.73 -491.6,-0.56 -737.37,1.63 -31.03,0.27 -65.77,11 -92.14,27.5 -84.01,52.57 -163.26,112.79 -247.8,164.4 -31.17,19.02 -71.69,30.04 -108.4,31.29 -115.6,3.93 -355.234,1.58 -358.93,2 v 66.87 c 3.891,0.45 345.36,1.14 511.77,-0.73 22.72,-0.26 49.03,-8.29 67.32,-21.52 97.7,-70.71 203.67,-95.05 325.31,-92.76 341.56,6.41 683.32,2.03 1025.01,2.5 24.42,0.04 42.88,-4.47 60.55,-24.41 35.45,-40.01 94.67,-39.53 133,-2.92 39.08,37.32 39.75,98.12 1.49,136.25 -37.97,37.84 -96.37,40.06 -132.8,0.17 -19.74,-21.62 -40.36,-26 -66.79,-25.96 -373.65,0.52 -747.29,-0.05 -1120.93,1.59 -29.2,0.13 -61.41,9.16 -87.02,23.4 -186.77,103.91 -115.6,87.09 -335.58,89.17 -122.33,1.16 -376.841,0.75 -381.33,1.18 v 64.71 c 11.575,2.78 561.58,1.1 823.91,1.08 267.84,-0.02 535.68,-0.23 803.51,0.33 24.5,0.05 42.42,-4.84 59.91,-25.1 34.22,-39.62 95.25,-38.64 133.28,-2.23 37.89,36.26 39.25,95.36 3.1,133.83 -36.7,39.06 -96.03,43.38 -132.52,4.2 -21.66,-23.25 -44.27,-27.52 -72.89,-27.5 -526.85,0.43 -1614.741,0.38 -1618.3,0.68 v 66.65 c 3.313,0.32 6.469,0.73 10.375,0.7 114.635,-0.64 229.315,-2.16 343.865,1.05 33.78,0.95 69.61,11.29 100.21,26.15 69.31,33.66 135.39,73.9 204.03,109.03 18.75,9.6 41.86,14.75 63.03,14.9 177.43,1.24 354.89,0.65 532.33,1.18 21.12,0.07 36.52,-4.97 51.32,-22.33 35.46,-41.55 95.74,-43.37 135.92,-7.27 38.34,34.45 41.17,96 6.17,133.96 -37.34,40.49 -95.78,44.13 -135.25,4.04 -20.12,-20.44 -40.85,-25.6 -67.4,-25.5 -164.22,0.64 -328.48,-1.73 -492.65,1.27 -63.47,1.17 -121.97,-10.92 -172.11,-46.65 -125.88,-89.72 -227.55,-117.23 -417.31,-112.29 -78.53,0 -158.655,-0.24 -161.182,0 l -1.348,166.11 c 0,106.83 86.61,193.44 193.45,193.44 h 795.61 v 783.99 c 0,106.83 86.61,193.43 193.46,193.43 h 451.88 21.49 451.88 c 106.84,0 193.45,-86.6 193.45,-193.43 v -783.99 h 795.61 c 106.85,0 193.45,-86.61 193.45,-193.44 v -928.53"
               style="fill:#2b1a78;fill-opacity:1;fill-rule:nonzero;stroke:none"
               id="path1243" /></g></g></g></g></g></svg>
